# xmcd
#
# Track frame offsets:
#	180
#	4356
#	12986
#	16017
#	24967
#	46577
#	52809
#	58248
#	71595
#	124374
#	134692
#	141348
#	175911
#	193155
#	274470
#
# Disc length: 3783 seconds
#
# Revision: 0
# Processed by: cddbd v1.5.2PL0 Copyright (c) Steve Scherf et al.
# Submitted via: SynApp - FreeCDDB Version: 2.5
#
DISCID=d90ec50f
DTITLE=Laurel and Hardy - Way Out West
DYEAR=1939
DGENRE=Western
TTITLE0=Laurel and Hardy - Music and Dialogue from Way Out West
TTITLE1=Laurel and Hardy - Music and Dialogue from Way Out West
TTITLE2=Laurel and Hardy - Music and Dialogue from Way Out West
TTITLE3=Laurel and Hardy - Music and Dialogue from Way Out West
TTITLE4=Laurel and Hardy - Music and Dialogue from Way Out West
TTITLE5=Laurel and Hardy - Music and Dialogue from Way Out West
TTITLE6=Laurel and Hardy - Music and Dialogue from Way Out West
TTITLE7=Laurel and Hardy - Music and Dialogue from Way Out West
TTITLE8=Laurel and Hardy - Music and Dialogue from Way Out West
TTITLE9=Laurel and Hardy - Music and Dialogue from Way Out West
TTITLE10=Laurel and Hardy - Music and Dialogue from Way Out West
TTITLE11=Laurel and Hardy - Music and Dialogue from Way Out West
TTITLE12=Laurel and Hardy - Music and Dialogue from Way Out West
TTITLE13=Laurel and Hardy - Music and Dialogue from Way Out West
TTITLE14=Laurel and Hardy - Music and Dialogue from Way Out West
EXTD=
EXTT0=
EXTT1=
EXTT2=
EXTT3=
EXTT4=
EXTT5=
EXTT6=
EXTT7=
EXTT8=
EXTT9=
EXTT10=
EXTT11=
EXTT12=
EXTT13=
EXTT14=
PLAYORDER=
